<svg width="14" height="13" viewBox="0 0 14 13" fill="none" xmlns="http://www.w3.org/2000/svg">
	<path d="M12.8532 1.89521C12.5315 1.57332 12.1495 1.31798 11.729 1.14376C11.3086 0.969551 10.8579 0.879883 10.4028 0.879883C9.94768 0.879883 9.49703 0.969551 9.07658 1.14376C8.65614 1.31798 8.27413 1.57332 7.95239 1.89521L7.28468 2.56293L6.61696 1.89521C5.96707 1.24532 5.08564 0.88022 4.16656 0.88022C3.24748 0.88022 2.36605 1.24532 1.71616 1.89521C1.06627 2.54509 0.701172 3.42653 0.701172 4.34561C0.701172 5.26469 1.06627 6.14612 1.71616 6.79601L2.38388 7.46372L7.28468 12.3645L12.1855 7.46372L12.8532 6.79601C13.1751 6.47427 13.4304 6.09227 13.6046 5.67182C13.7788 5.25137 13.8685 4.80072 13.8685 4.34561C13.8685 3.8905 13.7788 3.43984 13.6046 3.0194C13.4304 2.59895 13.1751 2.21695 12.8532 1.89521Z" fill="#EC7464"/>
</svg>
